# File created by Blade
# Date/Time:  Fri Jan 16 19:32:17 2015
# Frame Rate: 120.000 fps
#------------------------------------------------------
:FULLY-SPECIFIED
:DEGREES
957
root 19.634083 35.531570 -20.996474 10.304364 10.939171 -0.068487
Spine -21.393404 -4.628277 -0.687675
Head 14.849752 -5.102193 0.818275
LeftShoulder -12.271074 -22.384400 13.761842
LeftArm 2.102277 17.511491 -12.221609
LeftForeArm 17.159249 0.000000 7.878445
LeftHand -1.513080 -0.000000 -0.917733
LeftHandThumb1 -26.253704 0.000000 33.147579
RightShoulder -11.191098 -0.398884 -15.678108
RightArm -356.975333 44.730060 -351.038042
RightForeArm -37.351994 -0.000000 2.419891
RightHand -3.369095 -0.000000 4.485452
RightHandThumb1 -24.326973 -0.000000 -32.862282
LeftUpLeg -2.937988 0.535867 1.142373
LeftLeg -6.641741 -0.000000 0.000000
LeftFoot -18.662001 27.322693 -12.280916
LeftToeBase 25.785751 -0.000000 -0.000000
RightUpLeg -0.521736 -16.556684 -0.729036
RightLeg -4.416528 -0.000000 0.000000
RightFoot -22.112083 -25.019468 19.308266
RightToeBase 24.656852 -0.000000 -0.000000
958
root 19.635273 35.531301 -20.997264 10.321074 10.852930 -0.071219
Spine -21.427816 -4.589019 -0.670963
Head 14.790293 -4.856678 0.863846
LeftShoulder -12.185998 -22.841789 14.046084
LeftArm 2.509556 17.238874 -11.667064
LeftForeArm 17.211584 -0.000000 7.382676
LeftHand -1.639477 -0.000000 -0.417880
LeftHandThumb1 -26.253704 0.000000 33.147579
RightShoulder -11.163220 -0.398776 -15.535259
RightArm -357.013634 44.676124 -351.045366
RightForeArm -37.421406 -0.000000 2.407798
RightHand -3.310021 -0.000000 4.491315
RightHandThumb1 -24.326973 -0.000000 -32.862282
LeftUpLeg -2.941719 0.593494 1.128163
LeftLeg -6.645347 -0.000000 0.000000
LeftFoot -18.673165 27.360527 -12.274972
LeftToeBase 25.771251 -0.000000 -0.000000
RightUpLeg -0.540353 -16.503936 -0.736111
RightLeg -4.440019 -0.000000 0.000000
RightFoot -22.085576 -24.994735 19.262524
RightToeBase 24.733816 -0.000000 -0.000000
959
root 19.636165 35.530894 -20.997590 10.323293 10.775907 -0.075917
Spine -21.442567 -4.541008 -0.657322
Head 14.723606 -4.586313 0.926382
LeftShoulder -12.107555 -23.274187 14.302431
LeftArm 2.953334 16.905067 -11.127792
LeftForeArm 17.416231 0.000000 6.945341
LeftHand -1.891782 0.000000 -0.076369
LeftHandThumb1 -26.253704 0.000000 33.147579
RightShoulder -11.135373 -0.396299 -15.395159
RightArm -357.115749 44.586291 -351.094695
RightForeArm -37.459082 0.000000 2.444537
RightHand -3.327806 -0.000000 4.589007
RightHandThumb1 -24.326973 -0.000000 -32.862282
LeftUpLeg -2.933294 0.663886 1.118324
LeftLeg -6.647535 -0.000000 0.000000
LeftFoot -18.691543 27.366988 -12.296134
LeftToeBase 25.770099 -0.000000 -0.000000
RightUpLeg -0.539504 -16.444226 -0.740789
RightLeg -4.471423 -0.000000 0.000000
RightFoot -22.042455 -24.953400 19.305976
RightToeBase 24.559623 -0.000000 -0.000000
960
root 19.639316 35.530727 -20.998406 10.327517 10.697549 -0.075330
Spine -21.458422 -4.485742 -0.645800
Head 14.671883 -4.329227 0.980061
LeftShoulder -12.050398 -23.660358 14.543078
LeftArm 3.445346 16.624184 -10.598413
LeftForeArm 17.487704 -0.000000 6.465236
LeftHand -1.999236 -0.000000 0.253599
LeftHandThumb1 -26.253704 0.000000 33.147579
RightShoulder -11.098749 -0.403766 -15.246255
RightArm -357.230959 44.483109 -351.183962
RightForeArm -37.479895 -0.000000 2.437601
RightHand -3.341708 -0.000000 4.625161
RightHandThumb1 -24.326973 -0.000000 -32.862282
LeftUpLeg -2.922844 0.727292 1.098489
LeftLeg -6.657185 -0.000000 0.000000
LeftFoot -18.701965 27.381934 -12.302372
LeftToeBase 25.799532 -0.000000 -0.000000
RightUpLeg -0.543141 -16.386009 -0.758799
RightLeg -4.491751 -0.000000 0.000000
RightFoot -22.033595 -24.961138 19.258300
RightToeBase 24.658483 -0.000000 -0.000000
961
root 19.641963 35.530343 -20.998357 10.334859 10.642712 -0.076111
Spine -21.471306 -4.456290 -0.619081
Head 14.600857 -4.080859 1.008052
LeftShoulder -11.977631 -24.111114 14.788272
LeftArm 3.823645 16.507366 -10.123586
LeftForeArm 17.441986 -0.000000 6.064567
LeftHand -2.240792 -0.000000 0.741411
LeftHandThumb1 -26.253704 0.000000 33.147579
RightShoulder -11.070676 -0.397843 -15.144964
RightArm -357.359712 44.450133 -351.221048
RightForeArm -37.557381 -0.000000 2.476588
RightHand -3.392322 0.000000 4.685518
RightHandThumb1 -24.326973 -0.000000 -32.862282
LeftUpLeg -2.920474 0.782752 1.084268
LeftLeg -6.658818 -0.000000 0.000000
LeftFoot -18.701371 27.386546 -12.279453
LeftToeBase 25.786748 -0.000000 -0.000000
RightUpLeg -0.544456 -16.360495 -0.767844
RightLeg -4.519676 -0.000000 0.000000
RightFoot -21.990899 -24.912301 19.250981
RightToeBase 24.609554 -0.000000 -0.000000
962
root 19.644576 35.530017 -20.998865 10.344057 10.589776 -0.076542
Spine -21.487568 -4.425549 -0.590991
Head 14.534722 -3.769626 1.060622
LeftShoulder -11.903103 -24.429419 14.975584
LeftArm 4.269104 16.097283 -9.637147
LeftForeArm 17.301039 -0.000000 5.642526
LeftHand -2.354072 -0.000000 1.141174
LeftHandThumb1 -26.253704 0.000000 33.147579
RightShoulder -11.036570 -0.404636 -15.030934
RightArm -357.480054 44.283950 -351.294616
RightForeArm -37.473727 -0.000000 2.468454
RightHand -3.383086 -0.000000 4.701663
RightHandThumb1 -24.326973 -0.000000 -32.862282
LeftUpLeg -2.920370 0.840388 1.069766
LeftLeg -6.663207 -0.000000 0.000000
LeftFoot -18.713170 27.388232 -12.294227
LeftToeBase 25.821182 -0.000000 -0.000000
RightUpLeg -0.549839 -16.317155 -0.774562
RightLeg -4.543756 -0.000000 0.000000
RightFoot -21.970525 -24.912320 19.271560
RightToeBase 24.529776 -0.000000 -0.000000
963
root 19.648205 35.530171 -21.000124 10.364332 10.535578 -0.069885
Spine -21.517898 -4.388127 -0.568318
Head 14.476507 -3.432143 1.118146
LeftShoulder -11.850846 -24.829032 15.228415
LeftArm 4.624539 15.750432 -9.262407
LeftForeArm 17.262587 -0.000000 5.366416
LeftHand -2.607863 0.000000 1.455768
LeftHandThumb1 -26.253704 0.000000 33.147579
RightShoulder -11.010290 -0.420893 -14.923693
RightArm -357.602195 44.279411 -351.367017
RightForeArm -37.543785 -0.000000 2.473583
RightHand -3.450963 -0.000000 4.778918
RightHandThumb1 -24.326973 -0.000000 -32.862282
LeftUpLeg -2.934918 0.909497 1.045012
LeftLeg -6.660185 -0.000000 0.000000
LeftFoot -18.715123 27.371335 -12.288848
LeftToeBase 25.791579 -0.000000 -0.000000
RightUpLeg -0.575346 -16.291006 -0.789463
RightLeg -4.546883 -0.000000 0.000000
RightFoot -21.961158 -24.922493 19.212474
RightToeBase 24.661769 -0.000000 -0.000000
964
root 19.651879 35.529620 -21.000259 10.375634 10.491054 -0.065801
Spine -21.536274 -4.353174 -0.540735
Head 14.403963 -3.044149 1.189974
LeftShoulder -11.781893 -25.209676 15.438921
LeftArm 4.970152 15.450796 -8.881848
LeftForeArm 17.136961 -0.000000 5.038791
LeftHand -2.703266 -0.000000 1.806981
LeftHandThumb1 -26.253704 0.000000 33.147579
RightShoulder -10.994660 -0.457176 -14.826682
RightArm -357.737703 44.248517 -351.431555
RightForeArm -37.613838 -0.000000 2.490880
RightHand -3.422703 0.000000 4.939948
RightHandThumb1 -24.326973 -0.000000 -32.862282
LeftUpLeg -2.935191 0.946967 1.027384
LeftLeg -6.667925 -0.000000 0.000000
LeftFoot -18.717405 27.380596 -12.283818
LeftToeBase 25.802049 -0.000000 -0.000000
RightUpLeg -0.584316 -16.273565 -0.802420
RightLeg -4.561457 -0.000000 0.000000
RightFoot -21.942503 -24.896487 19.185983
RightToeBase 24.732498 -0.000000 -0.000000
965
root 19.655212 35.529632 -21.000502 10.384405 10.450690 -0.061672
Spine -21.555122 -4.316099 -0.496954
Head 14.362395 -2.652746 1.217646
LeftShoulder -11.726483 -25.503884 15.587527
LeftArm 5.367243 14.987204 -8.514045
LeftForeArm 17.007614 -0.000000 4.722069
LeftHand -2.861798 0.000000 2.203228
LeftHandThumb1 -26.253704 0.000000 33.147579
RightShoulder -10.991329 -0.519443 -14.747524
RightArm -357.803589 44.149084 -351.472882
RightForeArm -37.543209 0.000000 2.456863
RightHand -3.471616 -0.000000 4.909259
RightHandThumb1 -24.326973 -0.000000 -32.862282
LeftUpLeg -2.937686 0.994266 1.009000
LeftLeg -6.667546 -0.000000 0.000000
LeftFoot -18.719964 27.378965 -12.289519
LeftToeBase 25.788433 -0.000000 -0.000000
RightUpLeg -0.592149 -16.247173 -0.815660
RightLeg -4.572611 -0.000000 0.000000
RightFoot -21.919315 -24.898812 19.159341
RightToeBase 24.651049 -0.000000 -0.000000
966
root 19.659261 35.529599 -20.999975 10.403524 10.406598 -0.058163
Spine -21.578630 -4.248723 -0.465770
Head 14.286191 -2.215289 1.285612
LeftShoulder -11.667662 -25.768753 15.768066
LeftArm 5.681421 14.447827 -8.252086
LeftForeArm 17.049690 -0.000000 4.609501
LeftHand -3.134026 0.000000 2.567846
LeftHandThumb1 -26.253704 0.000000 33.147579
RightShoulder -11.042552 -0.606498 -14.689829
RightArm -357.861827 44.151896 -351.451547
RightForeArm -37.595871 -0.000000 2.481788
RightHand -3.589655 0.000000 4.974753
RightHandThumb1 -24.326973 -0.000000 -32.862282
LeftUpLeg -2.945868 1.057933 0.989304
LeftLeg -6.674897 -0.000000 0.000000
LeftFoot -18.721319 27.363028 -12.291381
LeftToeBase 25.842473 -0.000000 -0.000000
RightUpLeg -0.605286 -16.214372 -0.826137
RightLeg -4.593969 -0.000000 0.000000
RightFoot -21.900526 -24.893781 19.158036
RightToeBase 24.645598 -0.000000 -0.000000
967
root 19.663574 35.528712 -21.001320 10.389927 10.374517 -0.052617
Spine -21.558849 -4.208806 -0.426925
Head 14.227452 -1.690319 1.376552
LeftShoulder -11.593672 -26.003149 15.875025
LeftArm 5.949051 14.162132 -7.906063
LeftForeArm 16.903938 -0.000000 4.568882
LeftHand -3.391179 0.000000 2.987780
LeftHandThumb1 -26.253704 0.000000 33.147579
RightShoulder -11.041467 -0.694923 -14.624125
RightArm -357.960438 44.168158 -351.454719
RightForeArm -37.599672 -0.000000 2.535128
RightHand -3.718306 -0.000000 4.921752
RightHandThumb1 -24.326973 -0.000000 -32.862282
LeftUpLeg -2.929267 1.100947 0.969648
LeftLeg -6.671923 -0.000000 0.000000
LeftFoot -18.715400 27.355925 -12.266708
LeftToeBase 25.830032 -0.000000 -0.000000
RightUpLeg -0.596912 -16.188761 -0.847351
RightLeg -4.590675 -0.000000 0.000000
RightFoot -21.885109 -24.854216 19.164647
RightToeBase 24.572242 -0.000000 -0.000000
968
root 19.668264 35.528883 -21.000641 10.408035 10.336702 -0.046704
Spine -21.589734 -4.185138 -0.364538
Head 14.166744 -1.098119 1.446683
LeftShoulder -11.539645 -26.312620 16.006065
LeftArm 6.171192 13.929788 -7.603420
LeftForeArm 16.787940 -0.000000 4.578639
LeftHand -3.619145 0.000000 3.259282
LeftHandThumb1 -26.253704 0.000000 33.147579
RightShoulder -11.059060 -0.786813 -14.587215
RightArm -357.985212 44.205417 -351.411802
RightForeArm -37.726896 -0.000000 2.574711
RightHand -3.691084 -0.000000 4.942262
RightHandThumb1 -24.326973 -0.000000 -32.862282
LeftUpLeg -2.932706 1.147538 0.947683
LeftLeg -6.686669 -0.000000 0.000000
LeftFoot -18.708164 27.351251 -12.271637
LeftToeBase 25.792060 -0.000000 -0.000000
RightUpLeg -0.605878 -16.142408 -0.861253
RightLeg -4.614949 -0.000000 0.000000
RightFoot -21.868343 -24.888232 19.160478
RightToeBase 24.604394 -0.000000 -0.000000
969
root 19.670332 35.528425 -21.004181 10.437384 10.331541 -0.050698
Spine -21.617473 -4.192057 -0.294426
Head 14.099004 -0.451576 1.541178
LeftShoulder -11.490676 -26.605631 16.134009
LeftArm 6.456772 13.622007 -7.353099
LeftForeArm 16.803806 0.000000 4.393374
LeftHand -3.760726 0.000000 3.711962
LeftHandThumb1 -26.253704 0.000000 33.147579
RightShoulder -11.068750 -0.862075 -14.535939
RightArm -358.031493 44.159275 -351.384993
RightForeArm -37.729396 -0.000000 2.615302
RightHand -3.741683 -0.000000 4.900015
RightHandThumb1 -24.326973 -0.000000 -32.862282
LeftUpLeg -2.977233 1.163640 0.945712
LeftLeg -6.666334 -0.000000 0.000000
LeftFoot -18.708546 27.338262 -12.241913
LeftToeBase 25.756798 -0.000000 -0.000000
RightUpLeg -0.642235 -16.124227 -0.854878
RightLeg -4.613575 -0.000000 0.000000
RightFoot -21.864718 -24.892692 19.152706
RightToeBase 24.561766 -0.000000 -0.000000
